PathFileType	4	(X/Y/Z)	/home/abdul/Desktop/myosuite/custom_workspace/IK/output/S4_12_2.trc
DataRate	CameraRate	NumFrames	NumMarkers	Units	OrigDataRate	OrigDataStartFrame	OrigNumFrames
200.0	200.0	39	3	mm	200.0	396	1054
Frame#	Time	V_Shoulder			V_Elbow			V_Wrist		
		X1	Y1	Z1	X2	Y2	Z2	X3	Y3	Z3

396	1.975	-77.82849049773051	568.9933978949531	276.65196048948724	-131.14736918141637	427.0756629544518	25.708615322424706	-59.3312042058994	329.6194390387966	202.33233846207378
397	1.98	-77.93577882088223	569.1969520842703	276.6343715730073	-131.03106666255522	427.1089702943674	25.79676824421872	-59.36159584686791	330.54139960994576	202.88487198202114
398	1.985	-78.04285985909861	569.39808344872	276.615954567136	-130.91655161867544	427.1460948048473	25.879650541541274	-59.39346217395006	331.4500530358008	203.4164731556977
399	1.99	-78.14972514925014	569.5967701427218	276.5967305381191	-130.80395248812295	427.1870588533496	25.957304806588567	-59.42676555910495	332.34544092315923	203.9275265755897
400	1.995	-78.25636556573266	569.7929921073039	276.5767217397694	-130.6933939160669	427.2318776382221	26.029779760132758	-59.461471489992576	333.22761551359656	204.41842739955308
401	2.0	-78.36277132292439	569.9867309803558	276.5559515224461	-130.58499652215855	427.2805594216054	26.097129841229584	-59.49754842759381	334.09663912608323	204.88958035203984
402	2.005	-78.46893198037127	570.1779700092271	276.53444424141543	-130.47887668887262	427.3331057781706	26.159414795095817	-59.53496766682682	334.9525835641296	205.34139872314896
403	2.01	-78.57483645059506	570.366693966043	276.51222516498405	-130.37514637136994	427.38951185806354	26.216699261158432	-59.57370320106439	335.79552948858935	205.77430336823448
404	2.015	-78.68047300941241	570.5528890660897	276.4893203827897	-130.2739129295996	427.4497666623936	26.269052363222535	-59.61373159138618	336.6255657574045	206.18872171075296
405	2.02	-78.78582930864934	570.7365428895988	276.4657567146187	-130.17527898323246	427.51385332957614	26.316547303640842	-59.65503184133097	337.4427887337272	206.5850867509708
406	2.025	-78.89089239113144	570.9176443072228	276.4415616201074	-130.07934228989183	427.5817494308245	26.35926096329476	-59.69758527784543	338.24730156399744	206.96383608307983
407	2.03	-78.99564870782679	571.0961834094762	276.41676310966983	-129.98619564701315	427.6534272730718	26.397273509116314	-59.74137543905942	339.03921342769934	207.32541092318786
408	2.035	-79.10008413701578	571.2721514403808	276.3913896569794	-129.8959268175335	427.7288542076067	26.43066801079211	-59.78638796945165	339.81863876064847	207.67025515055707
409	2.04	-79.20418400536076	571.4455407355221	276.3654701133114	-129.8086184794755	427.8079929427098	26.459530068195882	-59.83261052290487	340.5856964537935	207.99881436436488
410	2.045	-79.30793311074594	571.6163446646998	276.33903362404055	-129.7243481993558	427.89080185859564	26.4839474509959	-59.880032674085186	341.340509029634	208.31153495815252
411	2.05	-79.41131574675812	571.7845575793161	276.3121095475651	-129.64318842921284	427.97723532298164	26.504009751778185	-59.92864583851648	342.0832017984679	208.60886321401125
412	2.055	-79.51431572867806	571.9501747646175	276.28472737691214	-129.56520652691518	428.0672440056394	26.519808053916968	-59.978443201656944	342.81390199678674	208.8912444184353
413	2.06	-79.61691642085265	572.113192396872	276.25691666425627	-129.49046479927858	428.16077519031484	26.53143461531093	-60.02941965722116	343.53273791023344	209.15912200164297
414	2.065	-79.71910076531897	572.2736075055344	276.2287069485671	-129.41902056739147	428.2577730824472	26.538982568988196	-60.08157175492633	344.23983798362167	209.41293670203726
415	2.07	-79.82085131155247	572.4314179404145	276.200127686576	-129.35092625342048	428.3581791111651	26.542545641465935	-60.13489765777613	344.9353299205958	209.65312575734043
416	2.075	-79.9221502472132	572.5866223438361	276.17120818723487	-129.2862294880475	428.46193222409113	26.542217889631825	-60.18939710892934	345.6193397755751	209.88012212380153
417	2.08	-80.02297942976615	572.7392201277427	276.1419775498157	-129.22497323757042	428.5689691735423	26.538093456796105	-60.245071408132645	346.29199104068607	210.09435372473328
418	2.085	-80.12332041885448	572.8892114556703	276.11246460578053	-129.16719594958874	428.67922479278167	26.530266348444492	-60.301923397627434	346.95340373043246	210.29624272949454
419	2.09	-80.22315450930643	573.036597229483	276.08269786452803	-129.11293171608884	428.79263226104183	26.518830228104964	-60.359957457369866	347.6036934668917	210.48620486389245
420	2.095	-80.3224627646611	573.1813790807346	276.05270546310334	-129.06221045264508	428.90912335611245	26.503878233625656	-60.41917950933026	348.2429705682507	210.66464875283492
421	2.1	-80.42122605110028	573.3235593664899	276.02251511993535	-129.01505809236113	429.02862869336053	26.4855028140478	-60.479597030563724	348.8713391435142	210.83197529592329
422	2.105	-80.51942507167833	573.4631411694162	275.9921540926452	-128.9714967930924	429.1510779501324	26.463795587146734	-60.54121907466738	349.48889619622025	210.98857707653417
423	2.11	-80.61704040074504	573.6001283019233	275.96164913994966	-128.9315451564157	429.2764000745662	26.438847217606686	-60.604056301162295	350.0957307399967	211.13483780480027
424	2.115	-80.71405251846043	573.7345253141107	275.93102648766177	-128.89521845674577	429.404523477929	26.410747315690912	-60.66812101225878	350.69192292877494	211.27113179476362
425	2.12	-80.8104418453055	573.8663375052532	275.9003117987729	-128.86252887894216	429.5353762096805	26.37958435616917	-60.733427196384625	351.27754320445325	211.39782347584037
426	2.125	-80.90618877649537	573.9955709385373	275.8695301475797	-128.8334857627034	429.6688861145514	26.345445617168632	-60.79999057777508	351.8526514647672	211.51526693860632
427	2.13	-81.00127371620704	574.1222324587362	275.83870599780334	-128.80809585200836	429.8049809710187	26.30841713852348	-60.867828671344	352.4172962540782	211.62380551478407
428	2.135	-81.09567711153754	574.2463297124979	275.807863184628	-128.78636354783958	429.943588610648	26.268583699112064	-60.93696084197579	352.9715139797395	211.7237713911899
429	2.14	-81.18937948611246	574.3678711708958	275.7770249005702	-128.76829116240629	430.0846370178683	26.22602881258905	-61.007408367300584	353.515328156633	211.81548525728027
430	2.145	-81.28236147326943	574.4868661538868	275.74621368507377	-128.75387917308186	430.2280544098387	26.180834740843647	-61.079194502939195	354.04874868240285	211.89925598582192
431	2.15	-81.37460384874505	574.6033248562971	275.71545141770997	-128.7431264742754	430.3737692961583	26.13308252444365	-61.15234454913226	354.57177114582765	211.9753803461008
432	2.155	-81.46608756279805	574.717258374953	275.68475931484716	-128.73603062547434	430.52171051826724	26.082852029258675	-61.22688591759949	355.08437617069126	212.04414274898102
433	2.16	-81.5567937717055	574.8286787365596	275.65415792964114	-128.73258809372246	430.6718072684814	26.030222008394762	-61.30284819741122	355.5865287974164	212.10581502302574
434	2.165	-81.64670386857334	574.9375989259273	275.6236671551842	-128.73279448883684	430.8239890886973	25.975270178516382	-61.38026321859694	356.0781779046282	212.16065622079822
